<mxfile host="app.diagrams.net" agent="Mozilla/5.0 (Macintosh; Intel Mac OS X 10_15_7) AppleWebKit/537.36 (KHTML, like Gecko) Chrome/129.0.0.0 Safari/537.36" version="24.7.17">
  <diagram name="Page-1" id="zgckrhe_6N9PWMuFcXIP">
    <mxGraphModel dx="2486" dy="795" grid="1" gridSize="10" guides="1" tooltips="1" connect="1" arrows="1" fold="1" page="1" pageScale="1" pageWidth="827" pageHeight="1169" math="0" shadow="0">
      <root>
        <mxCell id="0" />
        <mxCell id="1" parent="0" />
        <mxCell id="n855RKAs3QTDG8od7e2_-1" value="Event_sender&amp;nbsp;" style="rounded=0;whiteSpace=wrap;html=1;" vertex="1" parent="1">
          <mxGeometry x="100" y="60" width="120" height="60" as="geometry" />
        </mxCell>
        <mxCell id="n855RKAs3QTDG8od7e2_-8" style="edgeStyle=orthogonalEdgeStyle;rounded=0;orthogonalLoop=1;jettySize=auto;html=1;" edge="1" parent="1" source="n855RKAs3QTDG8od7e2_-2" target="n855RKAs3QTDG8od7e2_-1">
          <mxGeometry relative="1" as="geometry" />
        </mxCell>
        <mxCell id="n855RKAs3QTDG8od7e2_-11" value="message" style="edgeLabel;html=1;align=center;verticalAlign=middle;resizable=0;points=[];" vertex="1" connectable="0" parent="n855RKAs3QTDG8od7e2_-8">
          <mxGeometry x="0.1667" relative="1" as="geometry">
            <mxPoint as="offset" />
          </mxGeometry>
        </mxCell>
        <mxCell id="n855RKAs3QTDG8od7e2_-2" value="pending txn stream" style="rounded=0;whiteSpace=wrap;html=1;" vertex="1" parent="1">
          <mxGeometry x="210" y="190" width="120" height="60" as="geometry" />
        </mxCell>
        <mxCell id="n855RKAs3QTDG8od7e2_-9" style="edgeStyle=orthogonalEdgeStyle;rounded=0;orthogonalLoop=1;jettySize=auto;html=1;" edge="1" parent="1" source="n855RKAs3QTDG8od7e2_-3" target="n855RKAs3QTDG8od7e2_-1">
          <mxGeometry relative="1" as="geometry" />
        </mxCell>
        <mxCell id="n855RKAs3QTDG8od7e2_-10" value="message" style="edgeLabel;html=1;align=center;verticalAlign=middle;resizable=0;points=[];" vertex="1" connectable="0" parent="n855RKAs3QTDG8od7e2_-9">
          <mxGeometry x="-0.0737" y="2" relative="1" as="geometry">
            <mxPoint as="offset" />
          </mxGeometry>
        </mxCell>
        <mxCell id="n855RKAs3QTDG8od7e2_-3" value="block stream" style="rounded=0;whiteSpace=wrap;html=1;" vertex="1" parent="1">
          <mxGeometry x="-20" y="190" width="120" height="60" as="geometry" />
        </mxCell>
        <mxCell id="n855RKAs3QTDG8od7e2_-6" style="edgeStyle=orthogonalEdgeStyle;rounded=0;orthogonalLoop=1;jettySize=auto;html=1;" edge="1" parent="1" source="n855RKAs3QTDG8od7e2_-5" target="n855RKAs3QTDG8od7e2_-3">
          <mxGeometry relative="1" as="geometry" />
        </mxCell>
        <mxCell id="n855RKAs3QTDG8od7e2_-20" value="wss" style="edgeLabel;html=1;align=center;verticalAlign=middle;resizable=0;points=[];" vertex="1" connectable="0" parent="n855RKAs3QTDG8od7e2_-6">
          <mxGeometry x="0.1333" y="-4" relative="1" as="geometry">
            <mxPoint as="offset" />
          </mxGeometry>
        </mxCell>
        <mxCell id="n855RKAs3QTDG8od7e2_-5" value="eth node" style="rounded=0;whiteSpace=wrap;html=1;" vertex="1" parent="1">
          <mxGeometry x="100" y="370" width="120" height="60" as="geometry" />
        </mxCell>
        <mxCell id="n855RKAs3QTDG8od7e2_-7" style="edgeStyle=orthogonalEdgeStyle;rounded=0;orthogonalLoop=1;jettySize=auto;html=1;entryX=0.408;entryY=1.017;entryDx=0;entryDy=0;entryPerimeter=0;" edge="1" parent="1" source="n855RKAs3QTDG8od7e2_-5" target="n855RKAs3QTDG8od7e2_-2">
          <mxGeometry relative="1" as="geometry" />
        </mxCell>
        <mxCell id="n855RKAs3QTDG8od7e2_-21" value="wss" style="edgeLabel;html=1;align=center;verticalAlign=middle;resizable=0;points=[];" vertex="1" connectable="0" parent="n855RKAs3QTDG8od7e2_-7">
          <mxGeometry x="0.0001" y="3" relative="1" as="geometry">
            <mxPoint as="offset" />
          </mxGeometry>
        </mxCell>
        <mxCell id="n855RKAs3QTDG8od7e2_-12" value="sandwich strategy" style="swimlane;childLayout=stackLayout;horizontal=1;startSize=50;horizontalStack=0;rounded=1;fontSize=14;fontStyle=0;strokeWidth=2;resizeParent=0;resizeLast=1;shadow=0;dashed=0;align=center;arcSize=4;whiteSpace=wrap;html=1;" vertex="1" parent="1">
          <mxGeometry x="480" y="60" width="160" height="230" as="geometry" />
        </mxCell>
        <mxCell id="n855RKAs3QTDG8od7e2_-13" value="1. get all pools info&lt;div&gt;&lt;br&gt;&lt;div&gt;2. get all tokens info&lt;/div&gt;&lt;div&gt;&lt;br&gt;&lt;/div&gt;&lt;div&gt;3. get current block number&lt;/div&gt;&lt;div&gt;&amp;nbsp;&lt;/div&gt;&lt;div&gt;4. filter pools&lt;/div&gt;&lt;div&gt;&lt;br&gt;&lt;/div&gt;&lt;div&gt;5. get smart contract (valut)&amp;nbsp;&lt;/div&gt;&lt;div&gt;address and wallet&lt;/div&gt;&lt;/div&gt;" style="align=left;strokeColor=none;fillColor=none;spacingLeft=4;fontSize=12;verticalAlign=top;resizable=0;rotatable=0;part=1;html=1;" vertex="1" parent="n855RKAs3QTDG8od7e2_-12">
          <mxGeometry y="50" width="160" height="180" as="geometry" />
        </mxCell>
        <mxCell id="n855RKAs3QTDG8od7e2_-15" value="eth node" style="rounded=0;whiteSpace=wrap;html=1;" vertex="1" parent="1">
          <mxGeometry x="810" y="60" width="120" height="60" as="geometry" />
        </mxCell>
        <mxCell id="n855RKAs3QTDG8od7e2_-17" style="edgeStyle=orthogonalEdgeStyle;rounded=0;orthogonalLoop=1;jettySize=auto;html=1;entryX=1.013;entryY=0.109;entryDx=0;entryDy=0;entryPerimeter=0;" edge="1" parent="1" source="n855RKAs3QTDG8od7e2_-15" target="n855RKAs3QTDG8od7e2_-12">
          <mxGeometry relative="1" as="geometry" />
        </mxCell>
        <mxCell id="n855RKAs3QTDG8od7e2_-18" style="edgeStyle=orthogonalEdgeStyle;rounded=0;orthogonalLoop=1;jettySize=auto;html=1;entryX=0.025;entryY=0.13;entryDx=0;entryDy=0;entryPerimeter=0;" edge="1" parent="1" source="n855RKAs3QTDG8od7e2_-1" target="n855RKAs3QTDG8od7e2_-12">
          <mxGeometry relative="1" as="geometry" />
        </mxCell>
        <mxCell id="n855RKAs3QTDG8od7e2_-19" value="block msg &amp;amp; pending txn msg" style="edgeLabel;html=1;align=center;verticalAlign=middle;resizable=0;points=[];" vertex="1" connectable="0" parent="n855RKAs3QTDG8od7e2_-18">
          <mxGeometry x="-0.0458" y="2" relative="1" as="geometry">
            <mxPoint x="-2" as="offset" />
          </mxGeometry>
        </mxCell>
        <mxCell id="n855RKAs3QTDG8od7e2_-41" style="rounded=0;orthogonalLoop=1;jettySize=auto;html=1;" edge="1" parent="1" source="n855RKAs3QTDG8od7e2_-39" target="n855RKAs3QTDG8od7e2_-13">
          <mxGeometry relative="1" as="geometry" />
        </mxCell>
        <mxCell id="n855RKAs3QTDG8od7e2_-39" value="message handler" style="swimlane;childLayout=stackLayout;horizontal=1;startSize=50;horizontalStack=0;rounded=1;fontSize=14;fontStyle=0;strokeWidth=2;resizeParent=0;resizeLast=1;shadow=0;dashed=0;align=center;arcSize=4;whiteSpace=wrap;html=1;" vertex="1" parent="1">
          <mxGeometry x="490" y="600" width="290" height="260" as="geometry" />
        </mxCell>
        <mxCell id="n855RKAs3QTDG8od7e2_-40" value="loop event_receiver recv()&lt;div&gt;&lt;span style=&quot;white-space: pre;&quot;&gt;&#x9;&lt;/span&gt;&lt;br&gt;&lt;/div&gt;&lt;div&gt;&lt;span style=&quot;white-space: pre;&quot;&gt;&#x9;&lt;/span&gt;handle block event&lt;br&gt;&lt;/div&gt;&lt;div&gt;&lt;span style=&quot;white-space: pre;&quot;&gt;&#x9;&lt;/span&gt;&lt;span style=&quot;white-space: pre;&quot;&gt;&#x9;&lt;/span&gt;1. update gas fee&lt;br&gt;&lt;/div&gt;&lt;div&gt;&lt;span style=&quot;white-space: pre;&quot;&gt;&#x9;&lt;/span&gt;&lt;span style=&quot;white-space: pre;&quot;&gt;&#x9;&lt;/span&gt;2. update block number&lt;br&gt;&lt;/div&gt;&lt;div&gt;&lt;br&gt;&lt;/div&gt;&lt;div&gt;&lt;span style=&quot;white-space: pre;&quot;&gt;&#x9;&lt;/span&gt;handle pending txns event&lt;br&gt;&lt;/div&gt;&lt;div&gt;&lt;span style=&quot;white-space: pre;&quot;&gt;&#x9;&lt;/span&gt;&lt;span style=&quot;white-space: pre;&quot;&gt;&#x9;&lt;/span&gt;1. parsing txn type 0/2 -&amp;gt; decide gas price&amp;nbsp;&lt;/div&gt;&lt;div&gt;&lt;span style=&quot;white-space: pre;&quot;&gt;&#x9;&lt;/span&gt;&lt;span style=&quot;white-space: pre;&quot;&gt;&#x9;&lt;/span&gt;2. extract_swap_info -&amp;gt;&lt;br&gt;&lt;span style=&quot;white-space: pre;&quot;&gt;&#x9;&lt;/span&gt;&lt;span style=&quot;white-space: pre;&quot;&gt;&#x9;&lt;/span&gt;&amp;nbsp; &amp;nbsp; &amp;nbsp;each txns will result in No.&lt;br&gt;&lt;/div&gt;&lt;div&gt;&lt;span style=&quot;white-space: pre;&quot;&gt;&#x9;&lt;/span&gt;&lt;span style=&quot;white-space: pre;&quot;&gt;&#x9;&lt;/span&gt;3.generate promising sandwiches&lt;br&gt;&lt;/div&gt;" style="align=left;strokeColor=none;fillColor=none;spacingLeft=4;fontSize=12;verticalAlign=top;resizable=0;rotatable=0;part=1;html=1;" vertex="1" parent="n855RKAs3QTDG8od7e2_-39">
          <mxGeometry y="50" width="290" height="210" as="geometry" />
        </mxCell>
        <mxCell id="n855RKAs3QTDG8od7e2_-46" style="edgeStyle=orthogonalEdgeStyle;rounded=0;orthogonalLoop=1;jettySize=auto;html=1;entryX=1;entryY=0.5;entryDx=0;entryDy=0;" edge="1" parent="1" source="n855RKAs3QTDG8od7e2_-43" target="n855RKAs3QTDG8od7e2_-44">
          <mxGeometry relative="1" as="geometry" />
        </mxCell>
        <mxCell id="n855RKAs3QTDG8od7e2_-43" value="main dishes" style="rounded=0;whiteSpace=wrap;html=1;" vertex="1" parent="1">
          <mxGeometry x="200" y="730" width="120" height="60" as="geometry" />
        </mxCell>
        <mxCell id="n855RKAs3QTDG8od7e2_-44" value="plate (lots of sandwiches)" style="rounded=0;whiteSpace=wrap;html=1;" vertex="1" parent="1">
          <mxGeometry x="-150" y="720" width="120" height="60" as="geometry" />
        </mxCell>
        <mxCell id="n855RKAs3QTDG8od7e2_-45" style="edgeStyle=orthogonalEdgeStyle;rounded=0;orthogonalLoop=1;jettySize=auto;html=1;" edge="1" parent="1" source="n855RKAs3QTDG8od7e2_-40" target="n855RKAs3QTDG8od7e2_-43">
          <mxGeometry relative="1" as="geometry" />
        </mxCell>
        <mxCell id="n855RKAs3QTDG8od7e2_-51" value="" style="edgeStyle=orthogonalEdgeStyle;rounded=0;orthogonalLoop=1;jettySize=auto;html=1;" edge="1" parent="1" source="n855RKAs3QTDG8od7e2_-47" target="n855RKAs3QTDG8od7e2_-50">
          <mxGeometry relative="1" as="geometry" />
        </mxCell>
        <mxCell id="n855RKAs3QTDG8od7e2_-47" value="try batch sandwiches" style="rounded=0;whiteSpace=wrap;html=1;" vertex="1" parent="1">
          <mxGeometry x="-140" y="480" width="120" height="60" as="geometry" />
        </mxCell>
        <mxCell id="n855RKAs3QTDG8od7e2_-48" style="edgeStyle=orthogonalEdgeStyle;rounded=0;orthogonalLoop=1;jettySize=auto;html=1;entryX=0.567;entryY=0.983;entryDx=0;entryDy=0;entryPerimeter=0;" edge="1" parent="1" source="n855RKAs3QTDG8od7e2_-44" target="n855RKAs3QTDG8od7e2_-47">
          <mxGeometry relative="1" as="geometry" />
        </mxCell>
        <mxCell id="n855RKAs3QTDG8od7e2_-53" value="" style="edgeStyle=orthogonalEdgeStyle;rounded=0;orthogonalLoop=1;jettySize=auto;html=1;" edge="1" parent="1" source="n855RKAs3QTDG8od7e2_-50" target="n855RKAs3QTDG8od7e2_-52">
          <mxGeometry relative="1" as="geometry" />
        </mxCell>
        <mxCell id="n855RKAs3QTDG8od7e2_-50" value="simulated Sandwitch&lt;div&gt;with&amp;nbsp;&lt;/div&gt;&lt;div&gt;Front &amp;amp; Back run call data&lt;/div&gt;" style="whiteSpace=wrap;html=1;rounded=0;" vertex="1" parent="1">
          <mxGeometry x="-340" y="480" width="120" height="60" as="geometry" />
        </mxCell>
        <mxCell id="n855RKAs3QTDG8od7e2_-55" value="" style="edgeStyle=orthogonalEdgeStyle;rounded=0;orthogonalLoop=1;jettySize=auto;html=1;" edge="1" parent="1" source="n855RKAs3QTDG8od7e2_-52" target="n855RKAs3QTDG8od7e2_-54">
          <mxGeometry relative="1" as="geometry" />
        </mxCell>
        <mxCell id="n855RKAs3QTDG8od7e2_-52" value="make bundles" style="whiteSpace=wrap;html=1;rounded=0;" vertex="1" parent="1">
          <mxGeometry x="-340" y="340" width="120" height="60" as="geometry" />
        </mxCell>
        <mxCell id="n855RKAs3QTDG8od7e2_-54" value="Flashbot executor" style="whiteSpace=wrap;html=1;rounded=0;" vertex="1" parent="1">
          <mxGeometry x="-140" y="340" width="120" height="60" as="geometry" />
        </mxCell>
      </root>
    </mxGraphModel>
  </diagram>
</mxfile>
